<!DOCTYPE svg PUBLIC "-//W3C//DTD SVG 1.1//EN" "http://www.w3.org/Graphics/SVG/1.1/DTD/svg11.dtd">
<!-- Uploaded to: SVG Repo, www.svgrepo.com, Transformed by: SVG Repo Mixer Tools -->
<svg fill="#022b60" height="800px" width="800px" version="1.1" id="Layer_1" xmlns="http://www.w3.org/2000/svg" xmlns:xlink="http://www.w3.org/1999/xlink" viewBox="0 0 512.001 512.001" xml:space="preserve" stroke="#022b60">
<g id="SVGRepo_bgCarrier" stroke-width="0"/>
<g id="SVGRepo_tracerCarrier" stroke-linecap="round" stroke-linejoin="round"/>
<g id="SVGRepo_iconCarrier"> <g> <g> <path d="M473.272,143.145c-8.842-14.413-19.1-25.247-29.256-33.373c19.743,1.917,43.116,11.066,67.985,34.947 c0,0-6.901-79.469-86.25-89.26c-7.285-0.898-14.005-0.714-20.166,0.241c-3.839-4.913-8.609-9.651-14.534-13.983 c-64.54-47.189-123.977,6.012-123.977,6.012c34.477-0.38,57.776,8.953,73.479,21.07c-12.966-1.029-27.86-0.154-44.172,4.297 c-30.197,8.242-50.261,25.765-63.606,45.375h-95.242l-22.921,41.258H20.63c-11.393,0-20.63,9.237-20.63,20.63 c0,11.393,9.237,20.63,20.63,20.63h41.26c-11.393,0-20.63,9.237-20.63,20.63c0,11.393,9.237,20.63,20.63,20.63l34.383,0.001 v123.777H68.766v41.26h27.506v41.26H27.506v41.26h440.102v-41.26h-68.766v-41.26h27.506v-41.26h-27.506V242.25h27.506 l-28.73-51.713c2.019-1.642,3.8-3.607,5.25-5.867c24.283,19.246,50.038,54.245,46.656,115.333 C449.526,300.003,521.835,222.309,473.272,143.145z M137.532,283.508h41.26v41.26h-41.26V283.508z M220.051,448.546h-68.766 v-41.26h68.766V448.546z M220.051,283.508h55.013v82.519h-55.013V283.508z M343.83,448.546h-68.766v-41.26h68.766V448.546z M357.583,324.767h-41.26v-41.26h41.26V324.767z"/> </g> </g> </g>
</svg>